<mxfile host="app.diagrams.net" modified="2023-07-21T02:34:26.019Z" agent="Mozilla/5.0 (Windows NT 10.0; Win64; x64) AppleWebKit/537.36 (KHTML, like Gecko) Chrome/115.0.0.0 Safari/537.36" etag="uSz5gUKgi8acRnI4bwhc" version="21.6.5" type="github">
  <diagram name="Page-1" id="929967ad-93f9-6ef4-fab6-5d389245f69c">
    <mxGraphModel dx="1434" dy="758" grid="1" gridSize="10" guides="1" tooltips="1" connect="1" arrows="1" fold="1" page="1" pageScale="1.5" pageWidth="1169" pageHeight="826" background="none" math="0" shadow="0">
      <root>
        <mxCell id="0" style=";html=1;" />
        <mxCell id="1" style=";html=1;" parent="0" />
        <mxCell id="1672d66443f91eb5-23" value="Title" style="text;strokeColor=none;fillColor=none;html=1;fontSize=24;fontStyle=1;verticalAlign=middle;align=center;" parent="1" vertex="1">
          <mxGeometry x="120" y="40" width="1510" height="40" as="geometry" />
        </mxCell>
        <mxCell id="ikp5XBAc-00ZhkmhWjov-4" value="" style="edgeStyle=orthogonalEdgeStyle;rounded=0;orthogonalLoop=1;jettySize=auto;html=1;" edge="1" parent="1">
          <mxGeometry relative="1" as="geometry">
            <mxPoint x="540" y="570" as="sourcePoint" />
            <mxPoint x="660" y="570" as="targetPoint" />
          </mxGeometry>
        </mxCell>
        <mxCell id="ikp5XBAc-00ZhkmhWjov-22" value="打听" style="edgeLabel;html=1;align=center;verticalAlign=middle;resizable=0;points=[];" vertex="1" connectable="0" parent="ikp5XBAc-00ZhkmhWjov-4">
          <mxGeometry x="0.0667" y="1" relative="1" as="geometry">
            <mxPoint as="offset" />
          </mxGeometry>
        </mxCell>
        <mxCell id="ikp5XBAc-00ZhkmhWjov-32" style="edgeStyle=orthogonalEdgeStyle;rounded=0;orthogonalLoop=1;jettySize=auto;html=1;" edge="1" parent="1">
          <mxGeometry relative="1" as="geometry">
            <mxPoint x="540" y="590" as="sourcePoint" />
            <mxPoint x="660" y="590" as="targetPoint" />
          </mxGeometry>
        </mxCell>
        <mxCell id="ikp5XBAc-00ZhkmhWjov-33" value="成为VIP" style="edgeLabel;html=1;align=center;verticalAlign=middle;resizable=0;points=[];" vertex="1" connectable="0" parent="ikp5XBAc-00ZhkmhWjov-32">
          <mxGeometry x="0.1333" relative="1" as="geometry">
            <mxPoint as="offset" />
          </mxGeometry>
        </mxCell>
        <mxCell id="ikp5XBAc-00ZhkmhWjov-2" value="玩家" style="rounded=0;whiteSpace=wrap;html=1;" vertex="1" parent="1">
          <mxGeometry x="420" y="560" width="120" height="60" as="geometry" />
        </mxCell>
        <mxCell id="ikp5XBAc-00ZhkmhWjov-6" value="" style="edgeStyle=orthogonalEdgeStyle;rounded=0;orthogonalLoop=1;jettySize=auto;html=1;" edge="1" parent="1" source="ikp5XBAc-00ZhkmhWjov-3" target="ikp5XBAc-00ZhkmhWjov-5">
          <mxGeometry relative="1" as="geometry" />
        </mxCell>
        <mxCell id="ikp5XBAc-00ZhkmhWjov-16" value="" style="edgeStyle=orthogonalEdgeStyle;rounded=0;orthogonalLoop=1;jettySize=auto;html=1;" edge="1" parent="1" source="ikp5XBAc-00ZhkmhWjov-3" target="ikp5XBAc-00ZhkmhWjov-15">
          <mxGeometry relative="1" as="geometry" />
        </mxCell>
        <mxCell id="ikp5XBAc-00ZhkmhWjov-17" value="发布通知事件" style="edgeLabel;html=1;align=center;verticalAlign=middle;resizable=0;points=[];" vertex="1" connectable="0" parent="ikp5XBAc-00ZhkmhWjov-16">
          <mxGeometry x="-0.1" y="-1" relative="1" as="geometry">
            <mxPoint as="offset" />
          </mxGeometry>
        </mxCell>
        <mxCell id="ikp5XBAc-00ZhkmhWjov-19" style="edgeStyle=orthogonalEdgeStyle;rounded=0;orthogonalLoop=1;jettySize=auto;html=1;entryX=0.5;entryY=0;entryDx=0;entryDy=0;" edge="1" parent="1" source="ikp5XBAc-00ZhkmhWjov-3" target="ikp5XBAc-00ZhkmhWjov-2">
          <mxGeometry relative="1" as="geometry">
            <Array as="points">
              <mxPoint x="720" y="540" />
              <mxPoint x="480" y="540" />
            </Array>
          </mxGeometry>
        </mxCell>
        <mxCell id="ikp5XBAc-00ZhkmhWjov-20" value="告知打听结果" style="edgeLabel;html=1;align=center;verticalAlign=middle;resizable=0;points=[];" vertex="1" connectable="0" parent="ikp5XBAc-00ZhkmhWjov-19">
          <mxGeometry x="-0.0286" y="-3" relative="1" as="geometry">
            <mxPoint as="offset" />
          </mxGeometry>
        </mxCell>
        <mxCell id="ikp5XBAc-00ZhkmhWjov-27" style="edgeStyle=orthogonalEdgeStyle;rounded=0;orthogonalLoop=1;jettySize=auto;html=1;entryX=0;entryY=0.5;entryDx=0;entryDy=0;" edge="1" parent="1" source="ikp5XBAc-00ZhkmhWjov-3" target="ikp5XBAc-00ZhkmhWjov-24">
          <mxGeometry relative="1" as="geometry" />
        </mxCell>
        <mxCell id="ikp5XBAc-00ZhkmhWjov-30" style="edgeStyle=orthogonalEdgeStyle;rounded=0;orthogonalLoop=1;jettySize=auto;html=1;entryX=0;entryY=0.25;entryDx=0;entryDy=0;" edge="1" parent="1" source="ikp5XBAc-00ZhkmhWjov-3" target="ikp5XBAc-00ZhkmhWjov-5">
          <mxGeometry relative="1" as="geometry" />
        </mxCell>
        <mxCell id="ikp5XBAc-00ZhkmhWjov-31" value="VIP优先" style="edgeLabel;html=1;align=center;verticalAlign=middle;resizable=0;points=[];" vertex="1" connectable="0" parent="ikp5XBAc-00ZhkmhWjov-30">
          <mxGeometry x="0.5765" y="2" relative="1" as="geometry">
            <mxPoint as="offset" />
          </mxGeometry>
        </mxCell>
        <mxCell id="ikp5XBAc-00ZhkmhWjov-3" value="&lt;h2&gt;包打听系统&lt;/h2&gt;" style="whiteSpace=wrap;html=1;rounded=0;fillColor=#dae8fc;strokeColor=#6c8ebf;" vertex="1" parent="1">
          <mxGeometry x="660" y="560" width="120" height="60" as="geometry" />
        </mxCell>
        <mxCell id="ikp5XBAc-00ZhkmhWjov-7" value="" style="edgeStyle=orthogonalEdgeStyle;rounded=0;orthogonalLoop=1;jettySize=auto;html=1;" edge="1" parent="1" source="ikp5XBAc-00ZhkmhWjov-5" target="ikp5XBAc-00ZhkmhWjov-3">
          <mxGeometry relative="1" as="geometry" />
        </mxCell>
        <mxCell id="ikp5XBAc-00ZhkmhWjov-10" value="打听信息需求分发/取消" style="edgeLabel;html=1;align=center;verticalAlign=middle;resizable=0;points=[];" vertex="1" connectable="0" parent="ikp5XBAc-00ZhkmhWjov-7">
          <mxGeometry y="-3" relative="1" as="geometry">
            <mxPoint as="offset" />
          </mxGeometry>
        </mxCell>
        <mxCell id="ikp5XBAc-00ZhkmhWjov-12" value="" style="edgeStyle=orthogonalEdgeStyle;rounded=0;orthogonalLoop=1;jettySize=auto;html=1;" edge="1" parent="1" source="ikp5XBAc-00ZhkmhWjov-5" target="ikp5XBAc-00ZhkmhWjov-11">
          <mxGeometry relative="1" as="geometry" />
        </mxCell>
        <mxCell id="ikp5XBAc-00ZhkmhWjov-5" value="各NPC" style="whiteSpace=wrap;html=1;rounded=0;" vertex="1" parent="1">
          <mxGeometry x="997" y="560" width="120" height="60" as="geometry" />
        </mxCell>
        <mxCell id="ikp5XBAc-00ZhkmhWjov-13" style="edgeStyle=orthogonalEdgeStyle;rounded=0;orthogonalLoop=1;jettySize=auto;html=1;" edge="1" parent="1" source="ikp5XBAc-00ZhkmhWjov-11" target="ikp5XBAc-00ZhkmhWjov-5">
          <mxGeometry relative="1" as="geometry" />
        </mxCell>
        <mxCell id="ikp5XBAc-00ZhkmhWjov-14" value="择机询问/取消" style="edgeLabel;html=1;align=center;verticalAlign=middle;resizable=0;points=[];" vertex="1" connectable="0" parent="ikp5XBAc-00ZhkmhWjov-13">
          <mxGeometry x="-0.2" y="-4" relative="1" as="geometry">
            <mxPoint x="-12" as="offset" />
          </mxGeometry>
        </mxCell>
        <mxCell id="ikp5XBAc-00ZhkmhWjov-11" value="被打听玩家" style="whiteSpace=wrap;html=1;rounded=0;" vertex="1" parent="1">
          <mxGeometry x="1237" y="560" width="120" height="60" as="geometry" />
        </mxCell>
        <mxCell id="ikp5XBAc-00ZhkmhWjov-18" style="edgeStyle=orthogonalEdgeStyle;rounded=0;orthogonalLoop=1;jettySize=auto;html=1;" edge="1" parent="1" source="ikp5XBAc-00ZhkmhWjov-15" target="ikp5XBAc-00ZhkmhWjov-2">
          <mxGeometry relative="1" as="geometry" />
        </mxCell>
        <mxCell id="ikp5XBAc-00ZhkmhWjov-21" value="通知打听结束" style="edgeLabel;html=1;align=center;verticalAlign=middle;resizable=0;points=[];" vertex="1" connectable="0" parent="ikp5XBAc-00ZhkmhWjov-18">
          <mxGeometry x="-0.4207" y="1" relative="1" as="geometry">
            <mxPoint as="offset" />
          </mxGeometry>
        </mxCell>
        <mxCell id="ikp5XBAc-00ZhkmhWjov-15" value="通知NPC" style="whiteSpace=wrap;html=1;rounded=0;" vertex="1" parent="1">
          <mxGeometry x="660" y="700" width="120" height="60" as="geometry" />
        </mxCell>
        <mxCell id="ikp5XBAc-00ZhkmhWjov-24" value="系统数据库" style="whiteSpace=wrap;html=1;rounded=0;" vertex="1" parent="1">
          <mxGeometry x="997" y="640" width="120" height="60" as="geometry" />
        </mxCell>
        <mxCell id="ikp5XBAc-00ZhkmhWjov-34" style="edgeStyle=orthogonalEdgeStyle;rounded=0;orthogonalLoop=1;jettySize=auto;html=1;" edge="1" parent="1">
          <mxGeometry relative="1" as="geometry">
            <mxPoint x="540" y="610" as="sourcePoint" />
            <mxPoint x="660" y="610" as="targetPoint" />
          </mxGeometry>
        </mxCell>
        <mxCell id="ikp5XBAc-00ZhkmhWjov-35" value="主动问结果" style="edgeLabel;html=1;align=center;verticalAlign=middle;resizable=0;points=[];" vertex="1" connectable="0" parent="ikp5XBAc-00ZhkmhWjov-34">
          <mxGeometry x="0.1333" relative="1" as="geometry">
            <mxPoint as="offset" />
          </mxGeometry>
        </mxCell>
        <mxCell id="ikp5XBAc-00ZhkmhWjov-38" style="edgeStyle=orthogonalEdgeStyle;rounded=0;orthogonalLoop=1;jettySize=auto;html=1;" edge="1" parent="1">
          <mxGeometry relative="1" as="geometry">
            <mxPoint x="540" y="630" as="sourcePoint" />
            <mxPoint x="660" y="630" as="targetPoint" />
            <Array as="points">
              <mxPoint x="560" y="630" />
              <mxPoint x="560" y="630" />
            </Array>
          </mxGeometry>
        </mxCell>
        <mxCell id="ikp5XBAc-00ZhkmhWjov-39" value="取消打听" style="edgeLabel;html=1;align=center;verticalAlign=middle;resizable=0;points=[];" vertex="1" connectable="0" parent="ikp5XBAc-00ZhkmhWjov-38">
          <mxGeometry x="0.1333" relative="1" as="geometry">
            <mxPoint as="offset" />
          </mxGeometry>
        </mxCell>
      </root>
    </mxGraphModel>
  </diagram>
</mxfile>
